<svg width="24" height="24" viewBox="0 0 24 24" fill="none" xmlns="http://www.w3.org/2000/svg">
<path fill-rule="evenodd" clip-rule="evenodd" d="M1 3.5C1 2.94772 1.44772 2.5 2 2.5H22C22.5523 2.5 23 2.94772 23 3.5V8.5H21V4.5H3V14.5H10.5V16.5H2C1.44772 16.5 1 16.0523 1 15.5V3.5Z" fill="#697B7A"/>
<path fill-rule="evenodd" clip-rule="evenodd" d="M19 7.5H5V5.5H19V7.5Z" fill="#697B7A"/>
<path fill-rule="evenodd" clip-rule="evenodd" d="M16.0231 9.34095C16.6778 8.4775 17.9759 8.47749 18.6306 9.34095L19.1335 10.0042L19.9581 9.89084C21.0317 9.74324 21.9495 10.6611 21.8019 11.7346L21.6885 12.5592L22.3518 13.0622C23.2153 13.7169 23.2153 15.0149 22.3518 15.6697L21.6885 16.1726L21.8019 16.9972C21.9495 18.0707 21.0317 18.9886 19.9581 18.841L19.1335 18.7276L18.6306 19.3909C17.9759 20.2543 16.6778 20.2543 16.0231 19.3909L15.5202 18.7276L14.6956 18.841C13.622 18.9886 12.7042 18.0707 12.8518 16.9972L12.9652 16.1726L12.3019 15.6697C11.4384 15.0149 11.4384 13.7169 12.3019 13.0622L12.9061 13.859L12.3019 13.0622L12.9652 12.5592L12.8518 11.7346C12.7042 10.6611 13.622 9.74324 14.6956 9.89084L15.5202 10.0042L16.0231 9.34095ZM17.3269 10.9317L16.9852 11.3822C16.628 11.8534 16.0444 12.0951 15.4586 12.0146L14.8985 11.9376L14.9755 12.4977C15.056 13.0834 14.8143 13.6671 14.3432 14.0243L13.8926 14.3659L14.3432 14.7075C14.8143 15.0648 15.056 15.6484 14.9755 16.2341L14.8985 16.7943L15.4586 16.7173C16.0444 16.6367 16.628 16.8785 16.9852 17.3496L17.3269 17.8001L17.6685 17.3496C18.0257 16.8785 18.6093 16.6367 19.1951 16.7173L19.7552 16.7943L19.6782 16.2341C19.5977 15.6484 19.8394 15.0648 20.3105 14.7075L20.7611 14.3659L20.3105 14.0243C19.8394 13.6671 19.5977 13.0834 19.6782 12.4977L19.7552 11.9376L19.1951 12.0146C18.6093 12.0951 18.0257 11.8534 17.6685 11.3822L17.3269 10.9317ZM21.1434 14.076L21.143 14.0763L21.1434 14.076Z" fill="#697B7A"/>
<path fill-rule="evenodd" clip-rule="evenodd" d="M15.4648 20.461V17.8647H13.4648V21.9998C13.4648 22.3383 13.6361 22.6538 13.9199 22.8383C14.2038 23.0227 14.5617 23.0511 14.871 22.9136L17.3276 21.8218L19.7842 22.9136C20.0935 23.0511 20.4514 23.0227 20.7352 22.8383C21.019 22.6538 21.1903 22.3383 21.1903 21.9998V17.8647H19.1903V20.461L17.7337 19.8137C17.4751 19.6987 17.18 19.6987 16.9214 19.8137L15.4648 20.461Z" fill="#697B7A"/>
</svg>
