<svg width="28" height="28" viewBox="0 0 28 28" fill="none" xmlns="http://www.w3.org/2000/svg">
<path fill-rule="evenodd" clip-rule="evenodd" d="M8.16667 3.50033C6.878 3.50033 5.83333 4.54499 5.83333 5.83366V22.167C5.83333 23.4557 6.878 24.5003 8.16667 24.5003H19.8333C21.122 24.5003 22.1667 23.4557 22.1667 22.167V9.81691L15.8501 3.50033H8.16667ZM3.5 5.83366C3.5 3.25633 5.58934 1.16699 8.16667 1.16699H16.3333C16.6428 1.16699 16.9395 1.28991 17.1583 1.5087L24.1583 8.5087C24.3771 8.72749 24.5 9.02424 24.5 9.33366V22.167C24.5 24.7443 22.4107 26.8337 19.8333 26.8337H8.16667C5.58934 26.8337 3.5 24.7443 3.5 22.167V5.83366Z" fill="#697B7A"/>
<path fill-rule="evenodd" clip-rule="evenodd" d="M15.8867 1.25583C16.3227 1.07526 16.8245 1.17507 17.1581 1.50874L24.1581 8.50873C24.4918 8.8424 24.5916 9.3442 24.411 9.78016C24.2305 10.2161 23.805 10.5004 23.3332 10.5004H19.8332C17.2558 10.5004 15.1665 8.41102 15.1665 5.83369V2.33369C15.1665 1.86182 15.4508 1.43641 15.8867 1.25583ZM17.4998 5.15027V5.83369C17.4998 7.12236 18.5445 8.16703 19.8332 8.16703H20.5166L17.4998 5.15027Z" fill="#697B7A"/>
<path fill-rule="evenodd" clip-rule="evenodd" d="M12.8335 9.33333H9.3335V7L12.8335 7V9.33333Z" fill="#697B7A"/>
<path fill-rule="evenodd" clip-rule="evenodd" d="M18.6668 15.1673H9.3335V12.834H18.6668V15.1673Z" fill="#697B7A"/>
<path fill-rule="evenodd" clip-rule="evenodd" d="M18.6668 21.0003H9.3335V18.667H18.6668V21.0003Z" fill="#697B7A"/>
</svg>
