<svg width="21" height="20" viewBox="0 0 21 20" fill="none" xmlns="http://www.w3.org/2000/svg">
<g id="Frame">
<path id="Vector" d="M8.22685 3.18178C7.9723 3.1836 5.88685 3.24269 3.68503 4.88451C3.68503 4.88451 1.33594 9.12542 1.33594 14.3463C1.33594 14.3463 2.70594 16.7036 6.31139 16.8181C6.31139 16.8181 6.91503 16.0981 7.40412 15.4754C5.33321 14.8527 4.54957 13.5591 4.54957 13.5591C4.54957 13.5591 4.71321 13.6736 5.00594 13.8381C5.0223 13.8381 5.03776 13.8554 5.06957 13.8709C5.11957 13.9027 5.16776 13.92 5.21685 13.9527C5.62412 14.1818 6.03139 14.3618 6.40776 14.5081C7.07685 14.7872 7.87594 15.0318 8.80685 15.2118C10.0305 15.4409 11.4659 15.5227 13.0305 15.2291C13.8417 15.0781 14.6349 14.8422 15.3968 14.5254C16.0567 14.2762 16.6857 13.952 17.2714 13.5591C17.2714 13.5591 16.4568 14.8845 14.3196 15.4909C14.8087 16.0963 15.3968 16.7991 15.3968 16.7991C19.0014 16.6845 20.3723 14.3263 20.3723 14.3445C20.3723 9.12087 18.0232 4.88178 18.0232 4.88178C15.6905 3.13269 13.455 3.18178 13.455 3.18178L13.2268 3.4436C15.9996 4.27814 17.2887 5.50723 17.2887 5.50723C15.7672 4.67869 14.1006 4.15061 12.3796 3.95178C11.2835 3.82977 10.1767 3.84076 9.08321 3.98451C8.98594 3.98451 8.90412 4.00178 8.80503 4.01632C8.23412 4.08178 6.84776 4.27814 5.1023 5.04814C4.49957 5.30996 4.13957 5.50723 4.13957 5.50723C4.13957 5.50723 5.47957 4.2136 8.41503 3.37905L8.25139 3.18178H8.22594H8.22685ZM7.81139 9.22269C8.74048 9.22269 9.4923 10.0245 9.47503 11.0236C9.47503 12.0236 8.74048 12.8254 7.81139 12.8254C6.89776 12.8254 6.14776 12.0227 6.14776 11.0236C6.14776 10.0245 6.88048 9.22269 7.81139 9.22269V9.22269ZM13.7659 9.22269C14.6787 9.22269 15.4296 10.0245 15.4296 11.0236C15.4296 12.0236 14.6941 12.8254 13.7659 12.8254C12.8514 12.8254 12.1023 12.0227 12.1023 11.0236C12.1023 10.0245 12.835 9.22269 13.7659 9.22269V9.22269Z" fill="#04111D"/>
</g>
</svg>
