<svg width="32" height="32" viewBox="0 0 32 32" fill="none" xmlns="http://www.w3.org/2000/svg">
<path fill-rule="evenodd" clip-rule="evenodd" d="M9.33317 21.3337H22.6665C26.3484 21.3337 29.3332 24.3184 29.3332 28.0003C29.3332 28.7367 28.7362 29.3337 27.9998 29.3337C27.3161 29.3337 26.7525 28.8189 26.6755 28.1558L26.6597 27.7653C26.5426 25.7433 24.9235 24.1243 22.9015 24.0071L22.6665 24.0003H9.33317C7.12403 24.0003 5.33317 25.7912 5.33317 28.0003C5.33317 28.7367 4.73622 29.3337 3.99984 29.3337C3.26346 29.3337 2.6665 28.7367 2.6665 28.0003C2.6665 24.4153 5.49625 21.4912 9.04398 21.3398L9.33317 21.3337H22.6665H9.33317ZM15.9998 2.66699C20.4181 2.66699 23.9998 6.24871 23.9998 10.667C23.9998 15.0853 20.4181 18.667 15.9998 18.667C11.5816 18.667 7.99984 15.0853 7.99984 10.667C7.99984 6.24871 11.5816 2.66699 15.9998 2.66699ZM15.9998 5.33366C13.0543 5.33366 10.6665 7.72147 10.6665 10.667C10.6665 13.6125 13.0543 16.0003 15.9998 16.0003C18.9454 16.0003 21.3332 13.6125 21.3332 10.667C21.3332 7.72147 18.9454 5.33366 15.9998 5.33366Z" fill="#1E293B"/>
</svg>
