<svg width="24" height="24" viewBox="0 0 24 24" fill="none" xmlns="http://www.w3.org/2000/svg">
<path fill-rule="evenodd" clip-rule="evenodd" d="M6 3C5.44772 3 5 3.44772 5 4V20C5 20.5523 5.44772 21 6 21H18C18.5523 21 19 20.5523 19 20V8.91987C19 8.62794 18.8724 8.3506 18.6508 8.16061L12.9109 3.24074C12.7297 3.08539 12.4989 3 12.2602 3H6ZM3 4C3 2.34315 4.34315 1 6 1H12.2602C12.9763 1 13.6688 1.25618 14.2125 1.72223L19.9524 6.6421C20.6173 7.21205 21 8.0441 21 8.91987V20C21 21.6569 19.6569 23 18 23H6C4.34315 23 3 21.6569 3 20V4Z" fill="#697B7A"/>
<path fill-rule="evenodd" clip-rule="evenodd" d="M12 6V2.5H14V6C14 6.55228 14.4477 7 15 7H19.5V9H15C13.3431 9 12 7.65685 12 6Z" fill="#697B7A"/>
<path fill-rule="evenodd" clip-rule="evenodd" d="M16.7072 12.7072L11.2072 18.2072C10.8167 18.5977 10.1835 18.5977 9.79297 18.2072L7.29297 15.7072L8.70718 14.293L10.5001 16.0859L15.293 11.293L16.7072 12.7072Z" fill="#697B7A"/>
</svg>
