<svg width="28" height="28" viewBox="0 0 28 28" fill="none" xmlns="http://www.w3.org/2000/svg">
<path fill-rule="evenodd" clip-rule="evenodd" d="M7 3.50033C6.35567 3.50033 5.83333 4.02266 5.83333 4.66699V23.3337C5.83333 23.978 6.35567 24.5003 7 24.5003H21C21.6443 24.5003 22.1667 23.978 22.1667 23.3337V10.4068C22.1667 10.0663 22.0178 9.74269 21.7593 9.52104L15.0628 3.78119C14.8513 3.59995 14.582 3.50033 14.3035 3.50033H7ZM3.5 4.66699C3.5 2.734 5.067 1.16699 7 1.16699H14.3035C15.139 1.16699 15.9469 1.46586 16.5813 2.00959L23.2778 7.74944C24.0535 8.41438 24.5 9.3851 24.5 10.4068V23.3337C24.5 25.2667 22.933 26.8337 21 26.8337H7C5.067 26.8337 3.5 25.2667 3.5 23.3337V4.66699Z" fill="#020807" fill-opacity="0.6"/>
<path fill-rule="evenodd" clip-rule="evenodd" d="M14 7.00033V2.91699H16.3333V7.00033C16.3333 7.64466 16.8557 8.16699 17.5 8.16699H22.75V10.5003H17.5C15.567 10.5003 14 8.93332 14 7.00033Z" fill="#020807" fill-opacity="0.6"/>
</svg>
