<svg width="17" height="6" viewBox="0 0 17 6" fill="none" xmlns="http://www.w3.org/2000/svg">
<path d="M6.66641 1.59375C7.07266 1.1875 7.54141 0.984375 8.07266 0.984375C8.60391 0.984375 9.07266 1.1875 9.47891 1.59375C9.88516 2 10.0883 2.46875 10.0883 3C10.0883 3.53125 9.88516 4 9.47891 4.40625C9.07266 4.8125 8.60391 5.01562 8.07266 5.01562C7.54141 5.01562 7.07266 4.8125 6.66641 4.40625C6.26016 4 6.05703 3.53125 6.05703 3C6.05703 2.46875 6.26016 2 6.66641 1.59375ZM12.6664 1.59375C13.0727 1.1875 13.5414 0.984375 14.0727 0.984375C14.6039 0.984375 15.0727 1.1875 15.4789 1.59375C15.8852 2 16.0883 2.46875 16.0883 3C16.0883 3.53125 15.8852 4 15.4789 4.40625C15.0727 4.8125 14.6039 5.01562 14.0727 5.01562C13.5414 5.01562 13.0727 4.8125 12.6664 4.40625C12.2602 4 12.057 3.53125 12.057 3C12.057 2.46875 12.2602 2 12.6664 1.59375ZM0.666407 1.59375C1.07266 1.1875 1.54141 0.984375 2.07266 0.984375C2.60391 0.984375 3.07266 1.1875 3.47891 1.59375C3.88516 2 4.08828 2.46875 4.08828 3C4.08828 3.53125 3.88516 4 3.47891 4.40625C3.07266 4.8125 2.60391 5.01562 2.07266 5.01562C1.54141 5.01562 1.07266 4.8125 0.666407 4.40625C0.260157 4 0.0570316 3.53125 0.0570316 3C0.0570316 2.46875 0.260157 2 0.666407 1.59375Z" fill="#04111D"/>
</svg>
