<svg width="32" height="29" viewBox="0 0 32 29" fill="none" xmlns="http://www.w3.org/2000/svg">
<path d="M20.0003 23.4121H24.0003C24.7076 23.4121 25.3858 23.1655 25.8859 22.7264C26.386 22.2873 26.667 21.6918 26.667 21.0709V17.5591C26.667 17.2487 26.8075 16.9509 27.0575 16.7314C27.3076 16.5118 27.6467 16.3885 28.0003 16.3885C28.3539 16.3885 28.6931 16.5118 28.9431 16.7314C29.1932 16.9509 29.3337 17.2487 29.3337 17.5591V21.0709C29.3337 22.3128 28.7718 23.5038 27.7716 24.3819C26.7714 25.26 25.4148 25.7533 24.0003 25.7533H8.00033C6.58584 25.7533 5.22928 25.26 4.22909 24.3819C3.2289 23.5038 2.66699 22.3128 2.66699 21.0709V17.5591C2.66699 17.2487 2.80747 16.9509 3.05752 16.7314C3.30757 16.5118 3.6467 16.3885 4.00033 16.3885C4.35395 16.3885 4.69309 16.5118 4.94313 16.7314C5.19318 16.9509 5.33366 17.2487 5.33366 17.5591V21.0709C5.33366 21.6918 5.61461 22.2873 6.11471 22.7264C6.6148 23.1655 7.29308 23.4121 8.00033 23.4121H12.0003C12.3539 23.4121 12.6931 23.5354 12.9431 23.755C13.1932 23.9745 13.3337 24.2723 13.3337 24.5827C13.3337 24.8932 13.1932 25.1909 12.9431 25.4105C12.6931 25.63 12.3539 25.7533 12.0003 25.7533H20.0003C19.6467 25.7533 19.3076 25.63 19.0575 25.4105C18.8075 25.1909 18.667 24.8932 18.667 24.5827C18.667 24.2723 18.8075 23.9745 19.0575 23.755C19.3076 23.5354 19.6467 23.4121 20.0003 23.4121ZM5.33366 10.5355C5.33366 10.846 5.19318 11.1437 4.94313 11.3633C4.69309 11.5828 4.35395 11.7061 4.00033 11.7061C3.6467 11.7061 3.30757 11.5828 3.05752 11.3633C2.80747 11.1437 2.66699 10.846 2.66699 10.5355V7.02371C2.66699 5.78186 3.2289 4.59087 4.22909 3.71275C5.22928 2.83463 6.58584 2.34131 8.00033 2.34131L12.0003 2.34131C12.3539 2.34131 12.6931 2.46464 12.9431 2.68417C13.1932 2.9037 13.3337 3.20145 13.3337 3.51191C13.3337 3.82237 13.1932 4.12012 12.9431 4.33965C12.6931 4.55918 12.3539 4.68251 12.0003 4.68251H8.00033C7.29308 4.68251 6.6148 4.92917 6.11471 5.36823C5.61461 5.80729 5.33366 6.40279 5.33366 7.02371V10.5355ZM26.667 10.5355V7.02371C26.667 6.40279 26.386 5.80729 25.8859 5.36823C25.3858 4.92917 24.7076 4.68251 24.0003 4.68251H20.0003C19.6467 4.68251 19.3076 4.55918 19.0575 4.33965C18.8075 4.12012 18.667 3.82237 18.667 3.51191C18.667 3.20145 18.8075 2.9037 19.0575 2.68417C19.3076 2.46464 19.6467 2.34131 20.0003 2.34131H24.0003C25.4148 2.34131 26.7714 2.83463 27.7716 3.71275C28.7718 4.59087 29.3337 5.78186 29.3337 7.02371V10.5355C29.3337 10.846 29.1932 11.1437 28.9431 11.3633C28.6931 11.5828 28.3539 11.7061 28.0003 11.7061C27.6467 11.7061 27.3076 11.5828 27.0575 11.3633C26.8075 11.1437 26.667 10.846 26.667 10.5355Z" fill="#0A66C2"/>
</svg>
