<svg width="16" height="18" viewBox="0 0 16 18" fill="none" xmlns="http://www.w3.org/2000/svg">
<path d="M13.0443 12.3984C13.7214 12.3984 14.2943 12.6458 14.7631 13.1406C15.2318 13.6094 15.4662 14.1693 15.4662 14.8203C15.4662 15.4974 15.2188 16.0833 14.724 16.5781C14.2553 17.0469 13.6954 17.2812 13.0443 17.2812C12.3933 17.2812 11.8204 17.0469 11.3256 16.5781C10.8568 16.0833 10.6225 15.4974 10.6225 14.8203C10.6225 14.5599 10.6355 14.3776 10.6615 14.2734L4.76309 10.8359C4.26829 11.2786 3.69538 11.5 3.04434 11.5C2.36725 11.5 1.78132 11.2526 1.28652 10.7578C0.791732 10.263 0.544336 9.67708 0.544336 9C0.544336 8.32292 0.791732 7.73698 1.28652 7.24219C1.78132 6.7474 2.36725 6.5 3.04434 6.5C3.69538 6.5 4.26829 6.72135 4.76309 7.16406L10.6225 3.76562C10.5704 3.50521 10.5443 3.3099 10.5443 3.17969C10.5443 2.5026 10.7917 1.91667 11.2865 1.42188C11.7813 0.927083 12.3673 0.679688 13.0443 0.679688C13.7214 0.679688 14.3074 0.927083 14.8021 1.42188C15.2969 1.91667 15.5443 2.5026 15.5443 3.17969C15.5443 3.85677 15.2969 4.44271 14.8021 4.9375C14.3074 5.43229 13.7214 5.67969 13.0443 5.67969C12.4193 5.67969 11.8464 5.44531 11.3256 4.97656L5.46621 8.41406C5.51829 8.67448 5.54434 8.86979 5.54434 9C5.54434 9.13021 5.51829 9.32552 5.46621 9.58594L11.4037 13.0234C11.8725 12.6068 12.4193 12.3984 13.0443 12.3984Z" fill="#04111D"/>
</svg>
