<svg width="21" height="24" viewBox="0 0 21 24" fill="none" xmlns="http://www.w3.org/2000/svg">
<path d="M17.5 16.7578C18.4479 16.7578 19.25 17.1042 19.9062 17.7969C20.5625 18.4531 20.8906 19.237 20.8906 20.1484C20.8906 21.0964 20.5443 21.9167 19.8516 22.6094C19.1953 23.2656 18.4115 23.5938 17.5 23.5938C16.5885 23.5938 15.7865 23.2656 15.0938 22.6094C14.4375 21.9167 14.1094 21.0964 14.1094 20.1484C14.1094 19.7839 14.1276 19.5286 14.1641 19.3828L5.90625 14.5703C5.21354 15.1901 4.41146 15.5 3.5 15.5C2.55208 15.5 1.73177 15.1536 1.03906 14.4609C0.346354 13.7682 0 12.9479 0 12C0 11.0521 0.346354 10.2318 1.03906 9.53906C1.73177 8.84635 2.55208 8.5 3.5 8.5C4.41146 8.5 5.21354 8.8099 5.90625 9.42969L14.1094 4.67188C14.0365 4.30729 14 4.03385 14 3.85156C14 2.90365 14.3464 2.08333 15.0391 1.39062C15.7318 0.697917 16.5521 0.351562 17.5 0.351562C18.4479 0.351562 19.2682 0.697917 19.9609 1.39062C20.6536 2.08333 21 2.90365 21 3.85156C21 4.79948 20.6536 5.61979 19.9609 6.3125C19.2682 7.00521 18.4479 7.35156 17.5 7.35156C16.625 7.35156 15.8229 7.02344 15.0938 6.36719L6.89062 11.1797C6.96354 11.5443 7 11.8177 7 12C7 12.1823 6.96354 12.4557 6.89062 12.8203L15.2031 17.6328C15.8594 17.0495 16.625 16.7578 17.5 16.7578Z" fill="#0A66C2"/>
</svg>
