<svg width="21" height="20" viewBox="0 0 21 20" fill="none" xmlns="http://www.w3.org/2000/svg">
<g id="Frame">
<g id="etherscan-logo-circle">
<path id="Path 1" d="M4.95344 9.52291C4.95342 9.41126 4.97546 9.30071 5.01829 9.1976C5.06113 9.09449 5.12391 9.00086 5.20304 8.92209C5.28216 8.84332 5.37607 8.78096 5.47937 8.73858C5.58267 8.69621 5.69332 8.67467 5.80497 8.67519L7.21673 8.67982C7.44184 8.67982 7.65772 8.76924 7.81689 8.92841C7.97606 9.08758 8.06548 9.30346 8.06548 9.52856V14.8669C8.22451 14.8198 8.42848 14.7696 8.65191 14.7172C8.80705 14.6806 8.94532 14.5928 9.04428 14.4679C9.14325 14.343 9.19712 14.1883 9.19716 14.0289V7.40708C9.19715 7.2956 9.2191 7.18521 9.26175 7.08222C9.3044 6.97922 9.36692 6.88564 9.44574 6.80681C9.52456 6.72798 9.61814 6.66544 9.72113 6.62277C9.82411 6.5801 9.9345 6.55814 10.046 6.55813H11.4605C11.6856 6.55816 11.9015 6.6476 12.0606 6.80676C12.2198 6.96592 12.3092 7.18178 12.3093 7.40687V13.553C12.3093 13.553 12.6633 13.4096 13.0084 13.264C13.1365 13.2098 13.2459 13.1191 13.3228 13.0031C13.3997 12.8872 13.4408 12.7511 13.4409 12.612V5.28484C13.4409 5.17338 13.4628 5.06302 13.5055 4.96004C13.5481 4.85707 13.6106 4.76351 13.6894 4.68469C13.7682 4.60588 13.8618 4.54336 13.9648 4.5007C14.0677 4.45805 14.1781 4.4361 14.2896 4.4361H15.7041C15.9292 4.4361 16.1451 4.52551 16.3043 4.68468C16.4635 4.84385 16.5529 5.05973 16.5529 5.28484V11.3184C17.7793 10.4296 19.0222 9.36054 20.0086 8.07514C20.1517 7.88855 20.2464 7.66945 20.2842 7.43737C20.322 7.20529 20.3018 6.96745 20.2254 6.74507C19.558 4.80013 18.3062 3.10879 16.6411 1.90232C14.976 0.695853 12.9788 0.0331452 10.9228 0.00481251C5.37846 -0.0696663 0.796378 4.45618 0.796923 10.0012C0.791479 11.7558 1.24943 13.4807 2.12447 15.0016C2.24514 15.2096 2.42268 15.3789 2.63621 15.4895C2.84975 15.6001 3.09042 15.6475 3.32995 15.6261C3.59757 15.6025 3.93075 15.5692 4.32684 15.5227C4.49923 15.5031 4.6584 15.4208 4.77401 15.2914C4.88962 15.162 4.9536 14.9946 4.95378 14.8211V9.52291" fill="#04111D"/>
<path id="Path 2" d="M4.92292 18.0843C6.41399 19.1691 8.17606 19.8201 10.0142 19.9656C11.8523 20.111 13.6949 19.7451 15.338 18.9084C16.9811 18.0717 18.3607 16.7967 19.3241 15.2246C20.2876 13.6524 20.7974 11.8444 20.7971 10.0005C20.7971 9.77036 20.7864 9.54277 20.771 9.31641C17.1191 14.7628 10.3763 17.3089 4.92285 18.0845" fill="#04111D"/>
</g>
</g>
</svg>
