<svg width="21" height="20" viewBox="0 0 21 20" fill="none" xmlns="http://www.w3.org/2000/svg">
<g id="Frame">
<path id="Vector" d="M11.415 3.25L13.2483 6.91667C13.3316 7.08333 13.4983 7.25 13.7483 7.25L17.8316 7.83333C18.3316 7.91667 18.4983 8.5 18.165 8.83333L15.165 11.6667C14.9983 11.8333 14.915 12 14.9983 12.1667L15.665 16.25C15.7483 16.75 15.2483 17.1667 14.7483 16.9167L11.0816 15C10.915 14.9167 10.665 14.9167 10.4983 15L6.83162 16.9167C6.41496 17.1667 5.83162 16.75 5.91496 16.25L6.74829 12.3333C6.74829 12.1667 6.74829 11.9167 6.58162 11.8333L3.58162 9C3.24829 8.58333 3.41496 7.91667 3.91496 7.83333L7.99829 7.25C8.16496 7.25 8.33162 7.08333 8.49829 6.91667L10.3316 3.25C10.5816 2.83333 11.2483 2.83333 11.415 3.25Z" stroke="#04111D" stroke-width="2.08333" stroke-miterlimit="10"/>
</g>
</svg>
