<svg width="28" height="28" viewBox="0 0 28 28" fill="none" xmlns="http://www.w3.org/2000/svg">
<path fill-rule="evenodd" clip-rule="evenodd" d="M14.7451 6.68591C15.0121 6.90756 15.1667 7.2366 15.1667 7.58367V25.667C15.1667 26.3113 14.6443 26.8337 14 26.8337H4.66667C4.02233 26.8337 3.5 26.3113 3.5 25.667V9.33367C3.5 8.77225 3.89986 8.29045 4.45166 8.18698L13.785 6.43698C14.1261 6.37302 14.478 6.46426 14.7451 6.68591ZM5.83333 10.3019V24.5003H12.8333V8.98942L5.83333 10.3019Z" fill="#697B7A"/>
<path fill-rule="evenodd" clip-rule="evenodd" d="M13.2549 1.43591C12.9879 1.65756 12.8333 1.9866 12.8333 2.33367V25.667C12.8333 26.3113 13.3557 26.8337 14 26.8337H23.3333C23.9777 26.8337 24.5 26.3113 24.5 25.667V4.08367C24.5 3.52225 24.1001 3.04045 23.5483 2.93698L14.215 1.18698C13.8739 1.12302 13.522 1.21426 13.2549 1.43591ZM22.1667 5.05192V24.5003H15.1667V3.73942L22.1667 5.05192Z" fill="#697B7A"/>
<path fill-rule="evenodd" clip-rule="evenodd" d="M6.41699 18.6667C6.41699 18.0223 6.93933 17.5 7.58366 17.5H11.0837C11.728 17.5 12.2503 18.0223 12.2503 18.6667V25.6667C12.2503 26.311 11.728 26.8333 11.0837 26.8333H7.58366C6.93933 26.8333 6.41699 26.311 6.41699 25.6667V18.6667ZM8.75033 19.8333V24.5H9.91699V19.8333H8.75033Z" fill="#697B7A"/>
<path fill-rule="evenodd" clip-rule="evenodd" d="M11.0835 14.5833H7.5835V12.25H11.0835V14.5833Z" fill="#697B7A"/>
<path fill-rule="evenodd" clip-rule="evenodd" d="M20.417 9.33333H16.917V7H20.417V9.33333Z" fill="#697B7A"/>
<path fill-rule="evenodd" clip-rule="evenodd" d="M20.417 14.5833H16.917V12.25H20.417V14.5833Z" fill="#697B7A"/>
<path fill-rule="evenodd" clip-rule="evenodd" d="M2.3335 24.5H25.6668V26.8333H2.3335V24.5Z" fill="#697B7A"/>
</svg>
