<svg width="21" height="20" viewBox="0 0 21 20" fill="none" xmlns="http://www.w3.org/2000/svg">
<g id="Frame">
<path id="icon/action/language_24px" fill-rule="evenodd" clip-rule="evenodd" d="M1.73535 10.0001C1.73535 4.98191 5.79899 0.90918 10.8172 0.90918C15.8444 0.90918 19.9172 4.98191 19.9172 10.0001C19.9172 15.0183 15.8444 19.091 10.8172 19.091C5.79899 19.091 1.73535 15.0183 1.73535 10.0001ZM14.4354 6.36372H17.1172C16.2444 4.86373 14.8535 3.70009 13.1808 3.12736C13.7263 4.13645 14.1444 5.22736 14.4354 6.36372ZM10.8263 2.76373C11.5808 3.85463 12.1717 5.06373 12.5626 6.36372H9.0899C9.48081 5.06373 10.0717 3.85463 10.8263 2.76373ZM3.55353 10.0001C3.55353 10.6274 3.64444 11.2365 3.7899 11.8183H6.86262C6.7899 11.2183 6.73535 10.6183 6.73535 10.0001C6.73535 9.38191 6.7899 8.78191 6.86262 8.18191H3.7899C3.64444 8.76372 3.55353 9.37282 3.55353 10.0001ZM4.53535 13.6365H7.21717C7.50808 14.7728 7.92626 15.8637 8.47171 16.8728C6.79899 16.3001 5.40808 15.1455 4.53535 13.6365ZM4.53535 6.36372H7.21717C7.50808 5.22736 7.92626 4.13645 8.47171 3.12736C6.79899 3.70009 5.40808 4.85463 4.53535 6.36372ZM10.8263 17.2365C10.0717 16.1455 9.48081 14.9365 9.0899 13.6365H12.5626C12.1717 14.9365 11.5808 16.1455 10.8263 17.2365ZM8.55353 10.0001C8.55353 10.6183 8.61717 11.2183 8.69899 11.8183H12.9535C13.0354 11.2183 13.099 10.6183 13.099 10.0001C13.099 9.38191 13.0354 8.77282 12.9535 8.18191H8.69899C8.61717 8.77282 8.55353 9.38191 8.55353 10.0001ZM13.1808 16.8728C13.7263 15.8637 14.1444 14.7728 14.4354 13.6365H17.1172C16.2444 15.1365 14.8535 16.3001 13.1808 16.8728ZM14.9172 10.0001C14.9172 10.6183 14.8626 11.2183 14.7899 11.8183H17.8626C18.0081 11.2365 18.099 10.6274 18.099 10.0001C18.099 9.37282 18.0081 8.76372 17.8626 8.18191H14.7899C14.8626 8.78191 14.9172 9.38191 14.9172 10.0001Z" fill="#04111D"/>
</g>
</svg>
