<svg width="36" height="36" viewBox="0 0 36 36" fill="none" xmlns="http://www.w3.org/2000/svg">
<path fill-rule="evenodd" clip-rule="evenodd" d="M21.75 19.5H3.75V16.5H21.75V19.5Z" fill="#FAFAFA"/>
<path fill-rule="evenodd" clip-rule="evenodd" d="M17.5608 11.6895L22.8108 16.9395C23.3966 17.5252 23.3966 18.475 22.8108 19.0608L17.5608 24.3108L15.4395 22.1895L19.6288 18.0001L15.4395 13.8108L17.5608 11.6895Z" fill="#FAFAFA"/>
<path fill-rule="evenodd" clip-rule="evenodd" d="M20.2501 7.5C16.1738 7.5 12.6373 9.82256 10.8966 13.2235L8.22607 11.8566C10.4598 7.4925 15.0042 4.5 20.2501 4.5C27.706 4.5 33.7501 10.5442 33.7501 18C33.7501 25.4558 27.706 31.5 20.2501 31.5C15.0042 31.5 10.4598 28.5075 8.22607 24.1434L10.8966 22.7765C12.6373 26.1774 16.1738 28.5 20.2501 28.5C26.0491 28.5 30.7501 23.799 30.7501 18C30.7501 12.201 26.0491 7.5 20.2501 7.5Z" fill="#FAFAFA"/>
</svg>
