<svg width="32" height="32" viewBox="0 0 32 32" fill="none" xmlns="http://www.w3.org/2000/svg">
<path fill-rule="evenodd" clip-rule="evenodd" d="M16.0002 3.99967C9.37274 3.99967 4.00016 9.37226 4.00016 15.9997C4.00016 22.6271 9.37274 27.9997 16.0002 27.9997C22.6276 27.9997 28.0002 22.6271 28.0002 15.9997C28.0002 9.37226 22.6276 3.99967 16.0002 3.99967ZM1.3335 15.9997C1.3335 7.8995 7.89999 1.33301 16.0002 1.33301C24.1003 1.33301 30.6668 7.8995 30.6668 15.9997C30.6668 24.0998 24.1003 30.6663 16.0002 30.6663C7.89999 30.6663 1.3335 24.0998 1.3335 15.9997Z" fill="#FAFAFA"/>
<path fill-rule="evenodd" clip-rule="evenodd" d="M13.4669 7.06677C12.5791 9.2863 12.0002 12.444 12.0002 15.9997C12.0002 19.5554 12.5791 22.713 13.4669 24.9326C13.9123 26.046 14.4093 26.8576 14.8929 27.3691C15.3739 27.8777 15.7485 27.9997 16.0002 27.9997C16.2518 27.9997 16.6264 27.8777 17.1074 27.3691C17.5911 26.8576 18.088 26.046 18.5334 24.9326C19.4212 22.713 20.0002 19.5554 20.0002 15.9997C20.0002 12.444 19.4212 9.2863 18.5334 7.06677C18.088 5.95331 17.5911 5.14171 17.1074 4.63028C16.6264 4.12167 16.2518 3.99967 16.0002 3.99967C15.7485 3.99967 15.3739 4.12167 14.8929 4.63028C14.4093 5.14171 13.9123 5.95331 13.4669 7.06677ZM12.9554 2.798C13.7506 1.9572 14.779 1.33301 16.0002 1.33301C17.2213 1.33301 18.2497 1.9572 19.0449 2.798C19.8374 3.63598 20.4896 4.777 21.0094 6.0764C22.0518 8.68259 22.6668 12.1916 22.6668 15.9997C22.6668 19.8078 22.0518 23.3168 21.0094 25.923C20.4896 27.2223 19.8374 28.3634 19.0449 29.2014C18.2497 30.0421 17.2213 30.6663 16.0002 30.6663C14.779 30.6663 13.7506 30.0421 12.9554 29.2014C12.163 28.3634 11.5107 27.2223 10.991 25.923C9.94848 23.3168 9.3335 19.8078 9.3335 15.9997C9.3335 12.1916 9.94848 8.68259 10.991 6.0764C11.5107 4.777 12.163 3.63598 12.9554 2.798Z" fill="#FAFAFA"/>
<path fill-rule="evenodd" clip-rule="evenodd" d="M2.66699 14.666H29.3337V17.3327H2.66699V14.666Z" fill="#FAFAFA"/>
</svg>
